<?xml version="1.0" encoding="UTF-8"?>
<svg version="1.1" xmlns="http://www.w3.org/2000/svg" width="300" height="80">
<path d="M0 0 C2.62738171 2.37311896 2.95340284 3.66050637 3.4375 7.1875 C2.88604327 11.99305147 1.17343462 15.72105059 -1 20 C-5.64157706 19.37275986 -5.64157706 19.37275986 -7.5625 17.375 C-8.036875 16.92125 -8.51125 16.4675 -9 16 C-11.1477633 15.99521963 -11.1477633 15.99521963 -13 17 C-13.495 18.485 -13.495 18.485 -14 20 C-8.39 20.33 -2.78 20.66 3 21 C5.00642948 15.17180008 6.72132997 9.37872834 8.15625 3.3828125 C9.10899108 0.69220113 9.59197778 -0.45379626 12 -2 C15.35546875 -2.29296875 15.35546875 -2.29296875 19.1875 -2.1875 C21.09595703 -2.14689453 21.09595703 -2.14689453 23.04296875 -2.10546875 C24.50669922 -2.05326172 24.50669922 -2.05326172 26 -2 C29.05218322 5.4778489 30.99712277 13.19182885 33 21 C33.21914062 20.23816406 33.43828125 19.47632812 33.6640625 18.69140625 C36.13436636 10.64785586 38.85069389 3.33968541 45.5625 -2.0625 C51.05686893 -3.56096425 56.34258017 -3.23406076 62 -3 C63.59244259 -2.9568344 65.18489081 -2.91387607 66.77734375 -2.87109375 C68.41414189 -2.81205743 70.05086409 -2.75087472 71.6875 -2.6875 C72.47801758 -2.66526367 73.26853516 -2.64302734 74.08300781 -2.62011719 C76.32421875 -2.51171875 76.32421875 -2.51171875 80 -2 C80.99 -0.515 80.99 -0.515 82 1 C82.46921875 0.50886719 82.9384375 0.01773437 83.421875 -0.48828125 C87.2815329 -2.75144429 90.86511262 -2.32110204 95.25 -2.1875 C96.51070313 -2.16719727 96.51070313 -2.16719727 97.796875 -2.14648438 C99.86485938 -2.11123464 101.93251271 -2.0574302 104 -2 C102.45207461 2.92971079 100.90380795 7.85931421 99.35522461 12.78881836 C98.82843794 14.46587218 98.30174463 16.14295533 97.77514648 17.82006836 C97.01831191 20.23038318 96.26114194 22.64059242 95.50390625 25.05078125 C95.26845596 25.80087967 95.03300568 26.55097809 94.79042053 27.32380676 C93.87934119 30.2227524 92.96095675 33.11712975 92 36 C91.90830824 37.87204 91.86837938 39.74683121 91.859375 41.62109375 C91.84003906 42.72130859 91.82070313 43.82152344 91.80078125 44.95507812 C91.76698659 47.27261176 91.74870239 49.59042457 91.74609375 51.90820312 C91.56070874 60.24564991 91.56070874 60.24564991 88.94140625 63.76953125 C85.27681072 65.30252938 82.08380466 65.4438831 78.1875 65.25 C77.49462891 65.23195313 76.80175781 65.21390625 76.08789062 65.1953125 C74.39132336 65.14851064 72.69547524 65.07677624 71 65 C70.99589111 64.20005615 70.99178223 63.4001123 70.98754883 62.57592773 C71.59276084 41.01925338 71.59276084 41.01925338 65 21 C62.58416515 19.21484072 62.58416515 19.21484072 60 18 C59.01 17.34 58.02 16.68 57 16 C55.18640687 19.88134031 54.7626299 22.90693517 54.8046875 27.17578125 C54.81113281 28.33271484 54.81757813 29.48964844 54.82421875 30.68164062 C54.84097656 31.87982422 54.85773438 33.07800781 54.875 34.3125 C54.88402344 35.53001953 54.89304688 36.74753906 54.90234375 38.00195312 C54.92586963 41.00150274 54.95874347 44.00065044 55 47 C55.54269531 46.55527344 56.08539063 46.11054687 56.64453125 45.65234375 C57.71767578 44.80349609 57.71767578 44.80349609 58.8125 43.9375 C59.52019531 43.36902344 60.22789062 42.80054688 60.95703125 42.21484375 C61.63121094 41.81394531 62.30539063 41.41304687 63 41 C66 42 66 42 67.16796875 43.85546875 C70.77762881 52.1120475 70.77762881 52.1120475 70 57 C68.16114985 61.16160823 66.06288599 63.0181044 62 65 C55.95035977 66.86142776 48.76224809 67.15169098 43 64.375 C42.01 63.92125 41.02 63.4675 40 63 C39.01 63.66 38.02 64.32 37 65 C33.93359375 65.265625 33.93359375 65.265625 30.4375 65.25 C29.28121094 65.25515625 28.12492187 65.2603125 26.93359375 65.265625 C24 65 24 65 22 63 C21.3671875 61.1953125 21.3671875 61.1953125 20.875 59.125 C20.70742187 58.44695312 20.53984375 57.76890625 20.3671875 57.0703125 C20 55 20 55 20 51 C19.01 51 18.02 51 17 51 C16.87044922 52.01320313 16.87044922 52.01320313 16.73828125 53.046875 C16.59777344 53.93890625 16.45726562 54.8309375 16.3125 55.75 C16.18488281 56.63171875 16.05726563 57.5134375 15.92578125 58.421875 C14.64971181 61.97548611 13.26464363 63.11890187 10 65 C7.16645789 65.26177902 4.74212171 65.33917065 1.9375 65.1875 C-2.21984538 65.03212064 -5.95315414 64.94466237 -10 66 C-16.8098764 65.96480684 -23.20396698 65.8088217 -29 62 C-29.54460876 62.48797562 -30.08921753 62.97595123 -30.65032959 63.47871399 C-33.53904404 65.34900221 -35.17461658 65.36368502 -38.59472656 65.34057617 C-39.71558655 65.34034958 -40.83644653 65.34012299 -41.99127197 65.33988953 C-43.19555847 65.32440567 -44.39984497 65.30892181 -45.640625 65.29296875 C-46.87794373 65.28872391 -48.11526245 65.28447906 -49.39007568 65.28010559 C-52.67162541 65.26616254 -55.95273056 65.23923086 -59.23413086 65.20599365 C-62.58573307 65.17524594 -65.93735439 65.16184603 -69.2890625 65.14648438 C-75.85954877 65.11339996 -82.42973802 65.06318845 -89 65 C-89.09270775 56.85496178 -89.16376823 48.71014423 -89.20724869 40.56470871 C-89.22811795 36.78237005 -89.25642248 33.00039253 -89.30175781 29.21826172 C-89.34524074 25.56779688 -89.36914209 21.91767924 -89.37950897 18.2669754 C-89.3868961 16.87468246 -89.40132175 15.48240838 -89.42292023 14.09026337 C-89.45198041 12.13946589 -89.45363412 10.18831854 -89.45410156 8.23730469 C-89.46298401 7.1269989 -89.47186646 6.01669312 -89.48101807 4.8727417 C-89 2 -89 2 -85 -2 C-79.72 -2 -74.44 -2 -69 -2 C-69 14.17 -69 30.34 -69 47 C-66.69 47 -64.38 47 -62 47 C-62.02618408 45.69329346 -62.05236816 44.38658691 -62.0793457 43.0402832 C-62.16994324 38.18564012 -62.22728445 33.33107155 -62.2746582 28.47583008 C-62.29978051 26.3757673 -62.33388458 24.27579177 -62.37719727 22.17602539 C-62.43794871 19.1548916 -62.46623263 16.13491504 -62.48828125 13.11328125 C-62.51408768 12.17664139 -62.5398941 11.24000153 -62.56648254 10.27497864 C-62.56837976 5.85145822 -62.43200892 3.63698251 -59.89648438 -0.1015625 C-56.35215583 -2.42461533 -54.38192735 -2.58109972 -50.16796875 -2.48828125 C-48.87568359 -2.47216797 -47.58339844 -2.45605469 -46.25195312 -2.43945312 C-44.89711843 -2.39768274 -43.54230072 -2.35535809 -42.1875 -2.3125 C-40.81319134 -2.28740069 -39.43883884 -2.26459036 -38.06445312 -2.24414062 C-34.70852024 -2.18526461 -31.3548191 -2.1030642 -28 -2 C-27.505 -0.515 -27.505 -0.515 -27 1 C-26.2575 0.525625 -25.515 0.05125 -24.75 -0.4375 C-17.19216424 -4.73172486 -7.42012755 -4.32840774 0 0 Z M-42 15 C-42 16.65 -42 18.3 -42 20 C-39.69 20 -37.38 20 -35 20 C-34.67 18.35 -34.34 16.7 -34 15 C-36.64 15 -39.28 15 -42 15 Z M-42 38 C-42 40.97 -42 43.94 -42 47 C-39.69 47 -37.38 47 -35 47 C-35.33 44.03 -35.66 41.06 -36 38 C-37.98 38 -39.96 38 -42 38 Z " fill="#DBBA2C" transform="translate(190,9)"/>
<path d="M0 0 C3.3198455 1.30399629 3.3198455 1.30399629 5.5 -0.0625 C7.67824961 -0.14809118 9.85915255 -0.16963412 12.0390625 -0.16015625 C13.34101562 -0.15693359 14.64296875 -0.15371094 15.984375 -0.15039062 C17.36458399 -0.14203466 18.74479232 -0.13356971 20.125 -0.125 C21.51301926 -0.11998501 22.90104022 -0.1154221 24.2890625 -0.11132812 C27.69275132 -0.09950976 31.09635439 -0.08303434 34.5 -0.0625 C34.58126087 2.02018593 34.63930839 4.10378658 34.6875 6.1875 C34.73970703 7.92773438 34.73970703 7.92773438 34.79296875 9.703125 C34.47782084 13.1823579 33.98708792 14.53213016 31.5 16.9375 C28.80078125 17.328125 28.80078125 17.328125 25.8125 17.1875 C24.81863281 17.15140625 23.82476562 17.1153125 22.80078125 17.078125 C22.04152344 17.03171875 21.28226562 16.9853125 20.5 16.9375 C20.5 18.5875 20.5 20.2375 20.5 21.9375 C24.46 21.9375 28.42 21.9375 32.5 21.9375 C32.55398987 24.20807377 32.59278742 26.47901288 32.625 28.75 C32.64820312 30.01457031 32.67140625 31.27914062 32.6953125 32.58203125 C32.5 35.9375 32.5 35.9375 30.5 38.9375 C27.02674819 40.0952506 24.13932552 40.00616652 20.5 39.9375 C20.5 42.9075 20.5 45.8775 20.5 48.9375 C25.12 48.9375 29.74 48.9375 34.5 48.9375 C34.99111214 61.0925254 34.99111214 61.0925254 32.94238281 64.61743164 C30.22608459 67.19769774 28.8087084 67.49888342 25.11804199 67.47833252 C24.42940063 67.44938904 23.74075928 67.42044556 23.03125 67.390625 C22.313927 67.38117859 21.596604 67.37173218 20.85754395 67.36199951 C18.57053016 67.32747972 16.28613771 67.25874624 14 67.1875 C11.71421668 67.13744284 9.42846009 67.09445496 7.14245605 67.05584717 C5.72211505 67.02956524 4.30189169 66.99543786 2.88195801 66.95245361 C-0.44337892 66.86918054 -3.31082166 66.99628624 -6.5 67.9375 C-13.93561562 68.44160953 -20.2421565 67.10939567 -26.5 62.9375 C-27.49580078 63.91976562 -27.49580078 63.91976562 -28.51171875 64.921875 C-32.20041279 67.40993529 -35.03500029 67.40035166 -39.3125 67.1875 C-40.00537109 67.16945313 -40.69824219 67.15140625 -41.41210938 67.1328125 C-43.10867664 67.08601064 -44.80452476 67.01427624 -46.5 66.9375 C-46.61588422 58.79249491 -46.70470902 50.64783456 -46.75906086 42.50220871 C-46.78514817 38.71976339 -46.82052825 34.93788229 -46.87719727 31.15576172 C-46.93155122 27.50527662 -46.96142706 23.85533394 -46.97438622 20.2044754 C-46.98362033 18.81215118 -47.0016532 17.41985645 -47.02865028 16.02776337 C-47.06497353 14.07707203 -47.06704264 12.12583409 -47.06762695 10.17480469 C-47.07873001 9.0644989 -47.08983307 7.95419312 -47.10127258 6.8102417 C-46.5 3.9375 -46.5 3.9375 -44.20011902 1.57208252 C-40.67496749 -0.56195344 -37.67229252 -0.51078633 -33.6875 -0.3125 C-32.99462891 -0.29445313 -32.30175781 -0.27640625 -31.58789062 -0.2578125 C-29.89132336 -0.21101064 -28.19547524 -0.13927624 -26.5 -0.0625 C-26.17 1.2575 -25.84 2.5775 -25.5 3.9375 C-23.89125 2.9784375 -23.89125 2.9784375 -22.25 2 C-15.43292606 -2.06402485 -7.55165971 -2.03949934 0 0 Z M-9.5 16.9375 C-11.7773501 19.75259993 -11.7773501 19.75259993 -11.5 22.9375 C-7.54 22.9375 -3.58 22.9375 0.5 22.9375 C-3.7733095 18.19033603 -3.7733095 18.19033603 -9.5 16.9375 Z " fill="#DCBA2B" transform="translate(58.5,7.0625)"/>
<path d="M0 0 C2.625 -0.1875 2.625 -0.1875 5 0 C7.10792939 5.3384954 8.71760924 10.52384835 9.9375 16.125 C11.92133131 24.88924553 14.36794892 33.48575084 16.91796875 42.1015625 C18.28082855 46.84917741 19.40522796 51.00218847 19 56 C16.69 56 14.38 56 12 56 C11.49307308 54.4188708 10.99473557 52.83498617 10.5 51.25 C10.08234375 49.92742188 10.08234375 49.92742188 9.65625 48.578125 C9 46 9 46 9 42 C4.71 42 0.42 42 -4 42 C-4.20496094 42.92683594 -4.40992188 43.85367188 -4.62109375 44.80859375 C-4.89050781 46.00613281 -5.15992188 47.20367187 -5.4375 48.4375 C-5.70433594 49.63246094 -5.97117188 50.82742187 -6.24609375 52.05859375 C-7 55 -7 55 -8 56 C-10.33297433 56.04092937 -12.66705225 56.04241723 -15 56 C-13.85862357 48.77628862 -12.21509128 41.78338865 -10.27734375 34.734375 C-9.2239757 30.88096946 -8.23465316 27.01312915 -7.25390625 23.140625 C-6.7902063 21.31821289 -6.7902063 21.31821289 -6.31713867 19.45898438 C-5.69460845 17.00822535 -5.07620398 14.55641421 -4.4621582 12.10351562 C-4.02842896 10.40485352 -4.02842896 10.40485352 -3.5859375 8.671875 C-3.3286084 7.6519043 -3.0712793 6.63193359 -2.80615234 5.58105469 C-2 3 -2 3 0 0 Z " fill="#97535F" transform="translate(206,12)"/>
<path d="M0 0 C0.66 0.33 1.32 0.66 2 1 C2 3.31 2 5.62 2 8 C1.01 7.67 0.02 7.34 -1 7 C-4.9802228 6.63146085 -7.28636677 6.60353709 -10.8125 8.5625 C-15.89632193 14.22733015 -15.33683718 21.72882675 -15.3125 28.9375 C-15.32861328 29.88818359 -15.34472656 30.83886719 -15.36132812 31.81835938 C-15.3655308 37.91644178 -14.543169 42.44365861 -12 48 C-11.67 48.33 -11.34 48.66 -11 49 C-8.69 49 -6.38 49 -4 49 C-4 42.4 -4 35.8 -4 29 C-5.98 29 -7.96 29 -10 29 C-10.042721 27.33388095 -10.04063832 25.66617115 -10 24 C-9 23 -9 23 -6.27734375 22.90234375 C-5.17519531 22.91394531 -4.07304687 22.92554687 -2.9375 22.9375 C-1.83277344 22.94652344 -0.72804687 22.95554687 0.41015625 22.96484375 C1.26480469 22.97644531 2.11945313 22.98804687 3 23 C3.0989211 27.21746325 3.17149012 31.43431121 3.21972656 35.65258789 C3.23983525 37.08727786 3.26712673 38.52188593 3.30175781 39.95629883 C3.3503146 42.01924839 3.37297406 44.08111431 3.390625 46.14453125 C3.41157227 47.38565674 3.43251953 48.62678223 3.45410156 49.90551758 C3 53 3 53 1.16308594 54.8659668 C-3.52711095 57.32487927 -7.8157338 57.49373964 -13 57 C-17.59819043 55.16072383 -19.57625346 52.24155645 -22 48 C-23.76484177 42.71924552 -23.26295192 36.93023899 -23.29516602 31.43017578 C-23.3066323 30.07069445 -23.32699887 28.71125622 -23.35668945 27.35205078 C-23.54075816 18.90956973 -23.3686879 11.43844734 -19 4 C-13.61162033 -1.38837967 -7.12818493 -2.37606164 0 0 Z " fill="#975260" transform="translate(184,12)"/>
<path d="M0 0 C2 1.8125 2 1.8125 2.3125 4.5 C2.209375 5.263125 2.10625 6.02625 2 6.8125 C1.01 7.3075 1.01 7.3075 0 7.8125 C-0.66 7.4825 -1.32 7.1525 -2 6.8125 C-6.98990475 6.31215337 -6.98990475 6.31215337 -11.3125 8.5 C-14.44086593 12.78701998 -15.25396987 16.47989604 -15.265625 21.7421875 C-15.26820312 22.86753906 -15.27078125 23.99289063 -15.2734375 25.15234375 C-15.26570313 26.31894531 -15.25796875 27.48554687 -15.25 28.6875 C-15.25773437 29.84636719 -15.26546875 31.00523438 -15.2734375 32.19921875 C-15.25991483 38.11538876 -15.04715244 43.23969614 -13 48.8125 C-10.66705225 48.85491723 -8.33297433 48.85342937 -6 48.8125 C-4.45049732 47.26299732 -4.78344807 45.71259406 -4.68359375 43.55859375 C-4.64169922 42.70458984 -4.59980469 41.85058594 -4.55664062 40.97070312 C-4.51732422 40.07287109 -4.47800781 39.17503906 -4.4375 38.25 C-4.39431641 37.34830078 -4.35113281 36.44660156 -4.30664062 35.51757812 C-4.20021858 33.28271515 -4.09820012 31.04773692 -4 28.8125 C-5.98 28.8125 -7.96 28.8125 -10 28.8125 C-10 26.8325 -10 24.8525 -10 22.8125 C-6.04 22.8125 -2.08 22.8125 2 22.8125 C2 33.0425 2 43.2725 2 53.8125 C-4.13964658 56.88232329 -7.39953154 57.74622481 -14 56.8125 C-18.21026672 54.97529271 -20.1129365 53.16797716 -21.8125 49 C-24.13428657 42.17535463 -24.18212573 35.06377831 -24.1875 27.9375 C-24.19974609 27.09058594 -24.21199219 26.24367188 -24.22460938 25.37109375 C-24.24390795 16.96978281 -23.43419534 9.52532954 -18 2.8125 C-12.74537376 -1.80520184 -6.42070032 -2.54152721 0 0 Z " fill="#975260" transform="translate(56,12.1875)"/>
<path d="M0 0 C6.93 0 13.86 0 21 0 C21 1.98 21 3.96 21 6 C16.38 6 11.76 6 7 6 C7 11.28 7 16.56 7 22 C10.96 22 14.92 22 19 22 C19 23.98 19 25.96 19 28 C18 29 18 29 15.49609375 29.09765625 C12.6640625 29.06510417 9.83203125 29.03255208 7 29 C7 35.93 7 42.86 7 50 C11.62 50 16.24 50 21 50 C21 51.65 21 53.3 21 55 C20.67 55.33 20.34 55.66 20 56 C13.4 56 6.8 56 0 56 C0 37.52 0 19.04 0 0 Z " fill="#965061" transform="translate(66,12)"/>
<path d="M0 0 C6.6 0 13.2 0 20 0 C20 1.98 20 3.96 20 6 C15.71 6 11.42 6 7 6 C7 11.28 7 16.56 7 22 C10.96 22 14.92 22 19 22 C19 23.98 19 25.96 19 28 C18 29 18 29 15.49609375 29.09765625 C12.6640625 29.06510417 9.83203125 29.03255208 7 29 C7 35.93 7 42.86 7 50 C11.29 50 15.58 50 20 50 C20 51.98 20 53.96 20 56 C13.4 56 6.8 56 0 56 C0 37.52 0 19.04 0 0 Z " fill="#965160" transform="translate(135,12)"/>
<path d="M0 0 C2.64 0 5.28 0 8 0 C9.98 6.93 11.96 13.86 14 21 C15.93308351 14.46404954 15.93308351 14.46404954 17.85913086 7.92602539 C18.22083374 6.71160767 18.22083374 6.71160767 18.58984375 5.47265625 C18.83597412 4.64000244 19.08210449 3.80734863 19.33569336 2.94946289 C20 1 20 1 21 0 C23.33297433 -0.04092937 25.66705225 -0.04241723 28 0 C27.06818369 4.68717652 26.05025792 9.10511527 24.30859375 13.55859375 C18.82119875 27.71151816 17.85810475 40.89264626 18 56 C15.69 56 13.38 56 11 56 C11.0220752 55.45512939 11.04415039 54.91025879 11.06689453 54.34887695 C11.55533604 36.85724377 7.21705989 22.78586794 0.90209961 6.7512207 C0 4 0 4 0 0 Z " fill="#97535F" transform="translate(257,12)"/>
<path d="M0 0 C1.19109375 -0.00386719 1.19109375 -0.00386719 2.40625 -0.0078125 C4.5 0.125 4.5 0.125 6.5 1.125 C7.09355614 3.77360427 7.24209269 6.41697322 7.5 9.125 C6.88511719 9.01800781 6.27023438 8.91101562 5.63671875 8.80078125 C4.82847656 8.68089844 4.02023438 8.56101562 3.1875 8.4375 C2.38699219 8.30988281 1.58648437 8.18226562 0.76171875 8.05078125 C-1.53599307 7.91876409 -1.53599307 7.91876409 -3.1875 9.31640625 C-8.98035318 17.29882 -8.41627776 29.70249014 -7.5 39.125 C-6.42337109 44.55946554 -6.42337109 44.55946554 -3.5 49.125 C0.3361222 49.26975933 3.82307787 49.30161508 7.5 48.125 C7.8125 51.4375 7.8125 51.4375 7.5 55.125 C4.58354407 58.13867113 1.5281218 58.39052724 -2.5 58.625 C-6.02561232 58.48355642 -7.35825691 58.2124585 -10.4375 56.3125 C-15.56122544 48.39401523 -15.98086644 39.25523551 -15.875 30.0625 C-15.88660156 29.05123047 -15.89820313 28.03996094 -15.91015625 26.99804688 C-15.87348113 17.50530388 -14.48338197 9.51924259 -7.90234375 2.40234375 C-5.31608519 0.04661521 -3.39239196 -0.01101426 0 0 Z " fill="#975260" transform="translate(245.5,10.875)"/>
<path d="M0 0 C1.98 0 3.96 0 6 0 C6 16.17 6 32.34 6 49 C10.62 49 15.24 49 20 49 C20 51.31 20 53.62 20 56 C13.07 56 6.14 56 -1 56 C-1.02463956 48.18546786 -1.04283105 40.37095812 -1.05493164 32.55639648 C-1.05997383 29.89558519 -1.06680736 27.23477668 -1.07543945 24.57397461 C-1.08751009 20.75894484 -1.09322929 16.94395156 -1.09765625 13.12890625 C-1.10281754 11.93100967 -1.10797882 10.7331131 -1.11329651 9.49891663 C-1.11337204 8.3978508 -1.11344757 7.29678497 -1.11352539 6.16235352 C-1.115746 5.18750504 -1.11796661 4.21265656 -1.12025452 3.20826721 C-1 1 -1 1 0 0 Z " fill="#98535F" transform="translate(108,12)"/>
<path d="M0 0 C1.98 0 3.96 0 6 0 C6 18.48 6 36.96 6 56 C3.69 56 1.38 56 -1 56 C-1.02526563 48.18547248 -1.04283105 40.37095542 -1.05493164 32.55639648 C-1.05997383 29.89558519 -1.06680736 27.23477668 -1.07543945 24.57397461 C-1.08751009 20.75894484 -1.09322929 16.94395156 -1.09765625 13.12890625 C-1.10281754 11.93100967 -1.10797882 10.7331131 -1.11329651 9.49891663 C-1.11337204 8.3978508 -1.11344757 7.29678497 -1.11352539 6.16235352 C-1.115746 5.18750504 -1.11796661 4.21265656 -1.12025452 3.20826721 C-1 1 -1 1 0 0 Z " fill="#954F61" transform="translate(19,12)"/>
<path d="M0 0 C0.33 0 0.66 0 1 0 C2.32 7.26 3.64 14.52 5 22 C2.03 22 -0.94 22 -4 22 C-3.3622098 14.47407567 -1.80110167 7.32901118 0 0 Z " fill="#D8B62E" transform="translate(208,25)"/>
</svg>
